# xmcd
#
# Track frame offsets:
#	150
#	12938
#	28591
#	41878
#	56521
#	71620
#	84930
#	98682
#	112479
#	125836
#	141440
#	156608
#	173058
#	187232
#	200919
#	215147
#	230644
#	244219
#	257629
#	271061
#	285460
#	301133
#	315826
#	329556
#	342889
#
# Disc length: 4741 seconds
# Revision: 0
# Processed by: cddbd v1.5.2PL0 Copyright (c) Steve Scherf et al.
# Submitted via: dBpowerAMP V12.0
#
DISCID=85128319
DTITLE=Various Artist - Let Me Tell You About The Blues - Atlanta
DYEAR=1924
DGENRE=Blues
TTITLE0=Ed Andrews - Time Ain't Gonna Make Me Stay
TTITLE1=Julius Daniels - My Mamma Was A Sailor
TTITLE2=Blind Lemon Jefferson - Match Box Blues
TTITLE3=Barbecue Bob - Barbecue Blues
TTITLE4=Earl McDonald's Original Louisville Jug Band - Under The Chicken Tree
TTITLE5=Riley Puckett - A Darkey's Wail
TTITLE6=Blind Willie McTell - Mama 'Tain't Long Fo' Day
TTITLE7=Emery Glen - Back Door Blues
TTITLE8=Memphis Jug Band - Kansas City Blues
TTITLE9=Will Weldon - Turpentine Blues
TTITLE10=Vol Stevens - Vol Stevens Blues
TTITLE11=Charlie Lincoln - Jealous Hearted Blues
TTITLE12=Peg Leg Howell - Skin Game Blues
TTITLE13=Bobby Grant - Lonesome Atlanta Blues
TTITLE14=Pink Anderson and Simmie Cooley - C.C. and O. Blues
TTITLE15=Henry Williams and Eddie Anthony - Georgia Crawl
TTITLE16=Nellie Florence - Midnight Weeping Blues
TTITLE17=Uncle Bud Walker - Look Here Mama Blues
TTITLE18=Sloppy Henry - Canned Heat Blues
TTITLE19=Curley Weaver - No No Blues
TTITLE20=Too Tight Henry - Charleston Contest Pt.1
TTITLE21=Billy Bird - Down In The Cemetery
TTITLE22=Alec Johnson - Miss Meal Cramp Blues
TTITLE23=Willie Baker - Mama, Don't Rush Me Blues
TTITLE24=George Carter - Rising River Blues
EXTD=
EXTT0=
EXTT1=
EXTT2=
EXTT3=
EXTT4=
EXTT5=
EXTT6=
EXTT7=
EXTT8=
EXTT9=
EXTT10=
EXTT11=
EXTT12=
EXTT13=
EXTT14=
EXTT15=
EXTT16=
EXTT17=
EXTT18=
EXTT19=
EXTT20=
EXTT21=
EXTT22=
EXTT23=
EXTT24=
PLAYORDER=
